<svg width="38" height="49" viewBox="0 0 38 49" fill="none" xmlns="http://www.w3.org/2000/svg">
<path d="M5.11357 49C4.42641 49 3.78387 48.8104 3.18594 48.4312C2.59695 48.079 2.10165 47.605 1.70006 47.0091C1.29847 46.4132 0.968277 45.8444 0.709475 45.3027C0.459597 44.7609 0.249878 44.2192 0.0803179 43.6774L0.414976 33.8043C0.780869 35.2941 1.2717 36.5943 1.88747 37.7048C2.50324 38.7883 3.1681 39.33 3.88203 39.33C4.59597 39.33 5.10911 39.0998 5.42146 38.6393C5.74273 38.1788 5.90337 37.3391 5.90337 36.1202C5.90337 34.8201 5.72042 33.7095 5.35453 32.7886C4.99756 31.8676 4.37733 30.757 3.49383 29.4569C3.17256 28.9693 2.90037 28.5359 2.67726 28.1567C2.45416 27.7504 2.1552 27.1003 1.78038 26.2065C1.41449 25.2855 1.11553 24.3375 0.883497 23.3624C0.651468 22.3601 0.446211 21.0871 0.267726 19.5431C0.0892421 17.9721 0 16.2927 0 14.505C0 4.83499 1.79823 0 5.39469 0C5.96584 0 6.50129 0.189607 7.00105 0.568821C7.50973 0.920948 7.90685 1.31371 8.19243 1.74709C8.478 2.18048 8.73681 2.69513 8.96883 3.29104C9.20979 3.85987 9.3615 4.26617 9.42397 4.50995C9.48644 4.72664 9.53106 4.90271 9.55783 5.03814L8.88852 12.8798C8.54047 11.6338 8.10319 10.7128 7.57666 10.1169C7.05905 9.49392 6.56376 9.18242 6.09078 9.18242C4.94848 9.18242 4.37733 10.2659 4.37733 12.4328C4.37733 13.0017 4.41302 13.5163 4.48442 13.9768C4.55581 14.4373 4.67183 14.8571 4.83246 15.2363C4.9931 15.6155 5.14035 15.9406 5.27421 16.2114C5.417 16.4823 5.60887 16.8209 5.84982 17.2272C6.0997 17.6064 6.28711 17.9179 6.41205 18.1617C7.71498 19.8411 8.66987 21.832 9.27672 24.1343C9.89249 26.4367 10.2004 29.2402 10.2004 32.5448C10.2004 37.908 9.76309 41.9981 8.88852 44.8151C8.02287 47.605 6.76455 49 5.11357 49Z" fill="#F7F3DF"/>
<path d="M16.0497 44.8151L11.6188 47.0091V1.74709L16.0497 5.03814V19.3806H19.49V7L23.9208 10.1169V24.3375V38.6393L19.49 41.5V28.7255H16.0497V44.8151Z" fill="#F7F3DF"/>
<path d="M30.1288 36.1202L25.698 37.7048V12.4328L30.1288 14.505V19.3806H33.5691V16.2114L38 19.3806V29.4569L33.5691 32.7886V28.7255H30.1288V36.1202Z" fill="#F7F3DF"/>
</svg>
